<?xml version="1.0" encoding="UTF-8"?>
<svg version="1.1" xmlns="http://www.w3.org/2000/svg" width="85" height="85">
<path d="M0 0 C0.96164063 0.56976563 1.92328125 1.13953125 2.9140625 1.7265625 C3.91179688 2.3246875 4.90953125 2.9228125 5.9375 3.5390625 C6.93523438 4.12945313 7.93296875 4.71984375 8.9609375 5.328125 C18.51630217 11.01523212 18.51630217 11.01523212 20.9375 13.1640625 C21.328125 16.51953125 21.328125 16.51953125 21.1875 20.3515625 C21.15140625 21.62386719 21.1153125 22.89617188 21.078125 24.20703125 C21.03171875 25.18285156 20.9853125 26.15867187 20.9375 27.1640625 C22.2575 27.8240625 23.5775 28.4840625 24.9375 29.1640625 C24.9375 33.4540625 24.9375 37.7440625 24.9375 42.1640625 C23.4525 42.6590625 23.4525 42.6590625 21.9375 43.1640625 C21.6075 47.7840625 21.2775 52.4040625 20.9375 57.1640625 C14.59072892 59.20514643 8.23863617 61.22800247 1.87988281 63.23144531 C-0.79524426 64.07935316 -3.46421562 64.94432503 -6.1328125 65.8125 C-7.62988824 66.28486983 -9.1272651 66.75628683 -10.625 67.2265625 C-11.30747803 67.45432373 -11.98995605 67.68208496 -12.69311523 67.91674805 C-15.52139721 68.78602831 -17.59507156 69.27400167 -20.50390625 68.58984375 C-24.18131753 66.5405993 -27.82688012 64.45417197 -31.4375 62.2890625 C-32.90340117 61.41625562 -34.36954442 60.54385517 -35.8359375 59.671875 C-36.80152588 59.09397217 -36.80152588 59.09397217 -37.78662109 58.50439453 C-40.86087426 56.69387641 -43.96480505 54.9341739 -47.0625 53.1640625 C-47.0625 37.9840625 -47.0625 22.8040625 -47.0625 7.1640625 C-40.875 5.3284375 -34.6875 3.4928125 -28.3125 1.6015625 C-25.39132324 0.72649048 -25.39132324 0.72649048 -22.41113281 -0.16625977 C-20.86286247 -0.62074642 -19.31437421 -1.07449163 -17.765625 -1.52734375 C-16.96560059 -1.76996948 -16.16557617 -2.01259521 -15.34130859 -2.26257324 C-14.18477783 -2.59774963 -14.18477783 -2.59774963 -13.00488281 -2.93969727 C-12.33869934 -3.1373317 -11.67251587 -3.33496613 -10.98614502 -3.53858948 C-6.71295984 -4.1991184 -3.5752205 -2.12525534 0 0 Z " fill="#D4D4D4" transform="translate(55.0625,9.8359375)"/>
<path d="M0 0 C4.83584778 1.10021934 9.32038653 4.41407971 13.5625 6.9375 C14.31724609 7.38029297 15.07199219 7.82308594 15.84960938 8.27929688 C17.29285662 9.13252939 18.72935441 9.99731772 20.15771484 10.87524414 C21.5849709 11.74661555 23.04297901 12.56771797 24.51171875 13.3671875 C26.95334602 16.04592818 26.37865331 18.68169742 26.25 22.1875 C26.21390625 23.45980469 26.1778125 24.73210938 26.140625 26.04296875 C26.09421875 27.01878906 26.0478125 27.99460937 26 29 C27.32 29.66 28.64 30.32 30 31 C30 35.29 30 39.58 30 44 C24.39 45.32 18.78 46.64 13 48 C13 46.02 13 44.04 13 42 C12.38511719 42.2165625 11.77023438 42.433125 11.13671875 42.65625 C10.32847656 42.9346875 9.52023438 43.213125 8.6875 43.5 C7.88699219 43.7784375 7.08648437 44.056875 6.26171875 44.34375 C4 45 4 45 1 45 C1 47.31 1 49.62 1 52 C-1.22481229 52.70146314 -3.45507368 53.38565954 -5.6875 54.0625 C-6.92886719 54.44535156 -8.17023437 54.82820313 -9.44921875 55.22265625 C-12.86482021 55.97040618 -14.76955551 56.30288645 -18 55 C-18.65589041 53.03232878 -19.3069659 51.06258555 -19.91015625 49.078125 C-21.96591179 45.1581897 -26.08547913 43.70696088 -30 42 C-30 43.65 -30 45.3 -30 47 C-31.32 46.34 -32.64 45.68 -34 45 C-34 43.02 -34 41.04 -34 39 C-33.01 39.33 -32.02 39.66 -31 40 C-31 38.35 -31 36.7 -31 35 C-29.35 35.33 -27.7 35.66 -26 36 C-26 36.66 -26 37.32 -26 38 C-25.278125 38.268125 -24.55625 38.53625 -23.8125 38.8125 C-21 40 -21 40 -18.5625 41.6875 C-15.29357 43.36183 -13.48829005 42.89235327 -10 42 C-9.34 39.69 -8.68 37.38 -8 35 C-7.01 35 -6.02 35 -5 35 C-5 33.35 -5 31.7 -5 30 C-3.02 29.34 -1.04 28.68 1 28 C0.95875 27.236875 0.9175 26.47375 0.875 25.6875 C1 23 1 23 3 20 C2.01 19.38125 1.02 18.7625 0 18.125 C-1.485 17.073125 -1.485 17.073125 -3 16 C-3 15.34 -3 14.68 -3 14 C-2.34 14 -1.68 14 -1 14 C-1 13.34 -1 12.68 -1 12 C-1.66 11.67 -2.32 11.34 -3 11 C-0.36 10.01 2.28 9.02 5 8 C2.03 6.35 -0.94 4.7 -4 3 C-2.68 2.01 -1.36 1.02 0 0 Z " fill="#C9C9C9" transform="translate(50,8)"/>
<path d="M0 0 C2.48046875 1.08203125 2.48046875 1.08203125 5 3 C5.6859852 7.40676892 5.22189548 11.5177113 5 16 C-0.61 17.32 -6.22 18.64 -12 20 C-12 18.02 -12 16.04 -12 14 C-12.61488281 14.2165625 -13.22976562 14.433125 -13.86328125 14.65625 C-14.67152344 14.9346875 -15.47976562 15.213125 -16.3125 15.5 C-17.11300781 15.7784375 -17.91351563 16.056875 -18.73828125 16.34375 C-21 17 -21 17 -24 17 C-24 19.31 -24 21.62 -24 24 C-26.22481229 24.70146314 -28.45507368 25.38565954 -30.6875 26.0625 C-31.92886719 26.44535156 -33.17023437 26.82820313 -34.44921875 27.22265625 C-37.86482021 27.97040618 -39.76955551 28.30288645 -43 27 C-43.65589041 25.03232878 -44.3069659 23.06258555 -44.91015625 21.078125 C-46.96591179 17.1581897 -51.08547913 15.70696088 -55 14 C-55 15.65 -55 17.3 -55 19 C-56.32 18.34 -57.64 17.68 -59 17 C-59 15.02 -59 13.04 -59 11 C-58.01 11.33 -57.02 11.66 -56 12 C-56 10.35 -56 8.7 -56 7 C-54.35 7.33 -52.7 7.66 -51 8 C-51 8.66 -51 9.32 -51 10 C-50.278125 10.268125 -49.55625 10.53625 -48.8125 10.8125 C-46 12 -46 12 -43.5625 13.6875 C-40.21253836 15.40333401 -38.58623237 14.97127127 -35 14 C-34.175 13.67 -33.35 13.34 -32.5 13 C-29.67826976 11.8713079 -26.9919979 11.49866632 -24 11 C-22.33032028 10.3409159 -20.66392045 9.67349161 -19 9 C-16.962671 8.48264677 -14.92094969 8.01001238 -12.8671875 7.5625 C-10.69504405 7.00694749 -10.69504405 7.00694749 -8 5 C-5.95703125 4.8046875 -5.95703125 4.8046875 -3.8125 4.875 C-1.9253125 4.936875 -1.9253125 4.936875 0 5 C0 3.35 0 1.7 0 0 Z " fill="#050505" transform="translate(75,36)"/>
<path d="M0 0 C0 1.98 0 3.96 0 6 C1.216875 5.505 2.43375 5.01 3.6875 4.5 C7.24308013 3.05366232 8.86518677 3 13 3 C13 7.62 13 12.24 13 17 C-10.72340426 24.76595745 -10.72340426 24.76595745 -22 27 C-22.1875 24.625 -22.1875 24.625 -22 22 C-21.01 21.34 -20.02 20.68 -19 20 C-18.63637182 17.79274927 -18.63637182 17.79274927 -18.8125 15.375 C-18.85310547 14.14910156 -18.85310547 14.14910156 -18.89453125 12.8984375 C-18.92933594 12.27195312 -18.96414062 11.64546875 -19 11 C-15.535 10.505 -15.535 10.505 -12 10 C-12 7.69 -12 5.38 -12 3 C-10.37604003 2.49663233 -8.75079459 1.99741024 -7.125 1.5 C-6.22007813 1.2215625 -5.31515625 0.943125 -4.3828125 0.65625 C-2 0 -2 0 0 0 Z " fill="#D4D3D3" transform="translate(63,50)"/>
<path d="M0 0 C0 1.98 0 3.96 0 6 C0.66 6 1.32 6 2 6 C2 8.64 2 11.28 2 14 C1.443125 14.18175781 0.88625 14.36351563 0.3125 14.55078125 C-3.62088784 15.84640731 -7.51672523 17.18148197 -11.375 18.6875 C-15 20 -15 20 -18 20 C-18.33 17.03 -18.66 14.06 -19 11 C-15.535 10.505 -15.535 10.505 -12 10 C-12 7.69 -12 5.38 -12 3 C-10.37604003 2.49663233 -8.75079459 1.99741024 -7.125 1.5 C-6.22007813 1.2215625 -5.31515625 0.943125 -4.3828125 0.65625 C-2 0 -2 0 0 0 Z " fill="#CE9492" transform="translate(63,50)"/>
<path d="M0 0 C0 1.65 0 3.3 0 5 C-5.00446355 7.72970739 -9.38078232 9.49191901 -14.97265625 10.5625 C-17.14755553 10.96424062 -17.14755553 10.96424062 -19.625 12.125 C-22.80190862 13.29544002 -25.64575961 13.13153884 -29 13 C-29 11.35 -29 9.7 -29 8 C-23.47176964 5.8675039 -17.93381986 3.98332094 -12.25 2.3125 C-11.50878906 2.08755859 -10.76757812 1.86261719 -10.00390625 1.63085938 C-6.49698895 0.595154 -3.68650077 0 0 0 Z " fill="#B49A85" transform="translate(70,36)"/>
<path d="M0 0 C4.30864675 1.3041008 8.01711984 2.92899893 11.875 5.25 C12.84179688 5.81203125 13.80859375 6.3740625 14.8046875 6.953125 C17 9 17 9 17.3203125 12.234375 C17.21460937 13.14703125 17.10890625 14.0596875 17 15 C13.06897511 13.51219095 9.38276254 11.75329251 5.6875 9.75 C4.61886719 9.18796875 3.55023438 8.6259375 2.44921875 8.046875 C0 6 0 6 -0.35546875 2.765625 C-0.23816406 1.85296875 -0.12085938 0.9403125 0 0 Z " fill="#DFDFDF" transform="translate(8,57)"/>
<path d="M0 0 C0 1.98 0 3.96 0 6 C0.66 6 1.32 6 2 6 C2 8.64 2 11.28 2 14 C0.35 14.33 -1.3 14.66 -3 15 C-3 11.7 -3 8.4 -3 5 C-8.40787385 6.09786425 -8.40787385 6.09786425 -12 10 C-12 7.69 -12 5.38 -12 3 C-10.37604003 2.49663233 -8.75079459 1.99741024 -7.125 1.5 C-6.22007813 1.2215625 -5.31515625 0.943125 -4.3828125 0.65625 C-2 0 -2 0 0 0 Z " fill="#94745F" transform="translate(63,50)"/>
<path d="M0 0 C0 1.65 0 3.3 0 5 C-3.3 5.66 -6.6 6.32 -10 7 C-10 5.35 -10 3.7 -10 2 C-6.38026598 0.68373308 -3.90432869 0 0 0 Z " fill="#AD917C" transform="translate(70,36)"/>
<path d="M0 0 C1.29409289 0.61996078 2.58519673 1.24616353 3.875 1.875 C4.95394531 2.39707031 4.95394531 2.39707031 6.0546875 2.9296875 C8 4 8 4 10 6 C10 7.32 10 8.64 10 10 C5.97657617 9.38101172 3.12229583 7.55460568 0 5 C-0.375 2.25 -0.375 2.25 0 0 Z " fill="#E2E1E1" transform="translate(15,28)"/>
<path d="M0 0 C5.875 1.875 5.875 1.875 7 3 C7.04092937 5.33297433 7.04241723 7.66705225 7 10 C4.36 8.68 1.72 7.36 -1 6 C-0.67 4.02 -0.34 2.04 0 0 Z " fill="#CA918F" transform="translate(25,40)"/>
<path d="M0 0 C3.70488428 0.92622107 5.16604069 1.67210485 8 4 C7.67 5.32 7.34 6.64 7 8 C4.03 7.505 4.03 7.505 1 7 C0.67 7.99 0.34 8.98 0 10 C0 6.7 0 3.4 0 0 Z " fill="#C8C5C5" transform="translate(18,36)"/>
<path d="M0 0 C0 2.97 0 5.94 0 9 C-1.65 9.33 -3.3 9.66 -5 10 C-5.33 7.03 -5.66 4.06 -6 1 C-2 0 -2 0 0 0 Z " fill="#937B6A" transform="translate(50,60)"/>
<path d="M0 0 C0 1.65 0 3.3 0 5 C-4.455 6.485 -4.455 6.485 -9 8 C-8.67 6.02 -8.34 4.04 -8 2 C-2.25 0 -2.25 0 0 0 Z " fill="#FBB2B2" transform="translate(60,55)"/>
<path d="M0 0 C2.475 0.495 2.475 0.495 5 1 C5 3.64 5 6.28 5 9 C3.35 9.33 1.7 9.66 0 10 C0 6.7 0 3.4 0 0 Z " fill="#927461" transform="translate(60,55)"/>
<path d="M0 0 C1.65 0.33 3.3 0.66 5 1 C4.01 1.495 4.01 1.495 3 2 C2.34 1.67 1.68 1.34 1 1 C1.185625 1.886875 1.37125 2.77375 1.5625 3.6875 C1.98042484 6.85178811 1.80777742 8.94839642 1 12 C-0.32 11.34 -1.64 10.68 -3 10 C-3 8.02 -3 6.04 -3 4 C-2.01 4.33 -1.02 4.66 0 5 C0 3.35 0 1.7 0 0 Z " fill="#595552" transform="translate(19,43)"/>
<path d="M0 0 C0 1.98 0 3.96 0 6 C-1.8125 7.0625 -1.8125 7.0625 -4 8 C-4.99 7.67 -5.98 7.34 -7 7 C-6.34 7 -5.68 7 -5 7 C-5 5.02 -5 3.04 -5 1 C-1.125 0 -1.125 0 0 0 Z " fill="#C4C1C0" transform="translate(41,44)"/>
<path d="M0 0 C2.475 0.99 2.475 0.99 5 2 C5 3.65 5 5.3 5 7 C0.25 5.125 0.25 5.125 -2 4 C-2 3.34 -2 2.68 -2 2 C-1.34 2 -0.68 2 0 2 C0 1.34 0 0.68 0 0 Z " fill="#E3E3E3" transform="translate(20,53)"/>
<path d="M0 0 C3.46704871 0.9534384 5.6567524 2.28676594 8 5 C3.32538149 5.32613618 0.83325617 4.70582788 -3 2 C-2.01 1.34 -1.02 0.68 0 0 Z " fill="#DEDEDE" transform="translate(48,12)"/>
<path d="M0 0 C0.33 1.98 0.66 3.96 1 6 C-0.98 6.33 -2.96 6.66 -5 7 C-5.1875 4.625 -5.1875 4.625 -5 2 C-2 0 -2 0 0 0 Z " fill="#DA9F9F" transform="translate(60,60)"/>
<path d="M0 0 C0.99 0.33 1.98 0.66 3 1 C3 3.31 3 5.62 3 8 C2.01 7.67 1.02 7.34 0 7 C0 4.69 0 2.38 0 0 Z " fill="#BB9E87" transform="translate(29,42)"/>
<path d="M0 0 C0.99 0.33 1.98 0.66 3 1 C3 2.98 3 4.96 3 7 C1.68 6.34 0.36 5.68 -1 5 C-0.67 3.35 -0.34 1.7 0 0 Z " fill="#DCDCDC" transform="translate(29,69)"/>
<path d="M0 0 C0 1.98 0 3.96 0 6 C-0.99 5.67 -1.98 5.34 -3 5 C-3 4.01 -3 3.02 -3 2 C-3.99 1.67 -4.98 1.34 -6 1 C-3.92446352 0.4465236 -2.15634036 0 0 0 Z " fill="#6F5848" transform="translate(63,50)"/>
<path d="M0 0 C-0.33 0.99 -0.66 1.98 -1 3 C-2.98 3 -4.96 3 -7 3 C-7.33 2.34 -7.66 1.68 -8 1 C-2.25 -1.125 -2.25 -1.125 0 0 Z " fill="#DBDBDB" transform="translate(40,22)"/>
<path d="M0 0 C2.91517292 1.07401108 4.77810176 1.77810176 7 4 C4 5 4 5 1.8125 4.0625 C1.214375 3.711875 0.61625 3.36125 0 3 C0 2.01 0 1.02 0 0 Z " fill="#C8C8C8" transform="translate(20,50)"/>
<path d="M0 0 C1.485 0.99 1.485 0.99 3 2 C3.1875 4.625 3.1875 4.625 3 7 C2.01 6.67 1.02 6.34 0 6 C0 4.02 0 2.04 0 0 Z " fill="#020202" transform="translate(16,47)"/>
<path d="M0 0 C1.98 0.99 1.98 0.99 4 2 C3.67 3.32 3.34 4.64 3 6 C2.01 5.67 1.02 5.34 0 5 C0 3.35 0 1.7 0 0 Z " fill="#F7B1B1" transform="translate(22,38)"/>
</svg>
